<svg xmlns="http://www.w3.org/2000/svg" version="1.1" width="50px" height="50px" viewBox="0 0 200 200" style="overflow:hidden!important;"><g id="svga-group-wrapper"><g id="svga-group-backs-single"><path id="SvgjsPath7969" d="M0 0h200v200H0V0z" fill="#ecf0f1" strokeWidth="none" opacity="1"></path></g><g id="svga-group-humanwrap-move" transform="matrix(1,0,0,1,0,0)"><g id="svga-group-humanwrap"><g id="svga-group-hair-back-move" transform="matrix(1,0,0,1,0,0)"><g id="svga-group-hair-back"></g></g><g id="svga-group-humanbody-back"><path id="SvgjsPath7920" d="m170 180.3-27.3-6.9-18-9.9-1.5-28.2H76.8l-1.5 28.2-18 9.9-27.3 6.9-9.1 19.7-3 20h164.2l-3-20z" fill="#f0c7b1" strokeWidth="none" opacity="1" stroke="none"></path><path id="SvgjsPath7921" d="m76.8 135.3-1.5 28.2-18 9.9-27.3 6.9-9.1 19.7-3 20h14.6v-20l2.7-17.7 23.8-6.4 24.7-8.3 3.5-32.3z" fill="#d19271" strokeWidth="none" opacity="1" stroke="none"></path></g><g id="svga-group-chinshadow-single"><path id="SvgjsPath8056" d="m121.5 149.1 2.2-3.8-.5-10H76.8l-.8 15.9 13.8 9.6h14.8z" fill="#c27b55" strokeWidth="none" opacity="1" stroke="none"></path></g><g id="svga-group-humanbody-front"><path id="SvgjsPath7922" d="m92.8 168.3 2 7.9 6.9 4.6s-8.5-3-8.7-3.6c-.2-.6-.2-8.9-.2-8.9z" fill="#d19271" strokeWidth="none" opacity="1" stroke="none"></path></g><g id="svga-group-clothes-single"><path id="SvgjsPath10145" d="m184.7 220-8.1-35.4-4.8-3.5-1.5-2-17.6-6.8-8.6-15.9-3.8-1.6-7.3-9-9.4-3.1.6 11-1.3 10.1-8.9 9.1-8.1 9.8-2.5 5-1.7-3.2-4.5-3.8-11.2-7.8-8.9-9.1-1.3-10.1.6-11-9.4 3.1-7.3 9-3.8 1.6-8.6 15.9-17.6 6.8-1.5 2-4.8 3.5-8.1 35.4z" fill="#1d2a2c" strokeWidth="none" opacity="1" stroke="none"></path><path id="SvgjsPath10146" d="m134.2 188.8-15 3.8-9.9.2-.1-1.7 1.3-.1-.7-2.3-3.2.3-.1 2.3.8-.1v1.6h-2.1l2.1.2.1 5.9-.7 7.4 1.6 7.5.3 4.8 2.6-1-.3-5.1-2-6.6.9-7.3-.3-5.6 9.7.7 15.8-4.1 16-12.2 2-5.3-3.2 4.1-15.6 12.6zm-32.2 4.3-2.5-.2.2-1.8.6.1 1.2-2.2-3.3-2.3-2 1.9 1.2 2.3h.1v1.9l-1.5-.1-26-6.9-15.8-11 1.9-11L59 160l11 18.7 17.7 7.2-14.8-7.9-8.1-12.4 2.2-19.8-7.2 8.9-3.8 1.7-8.6 15.8-17.7 6.8-1.5 2-4.8 3.5-8.1 35.5h10.2l1.3-14.3 3.3-18.1 2.9 2.6 2.6 13.9 1.2 15.9v-16.2l-2.6-15.3-2.2-4.3 1.4-1.7 16.7-6L69 187.3l26.8 6.2 1.5-.1-.1 3.4 1.4 9.9s-3 9.8-2.8 9.9c.3.2 1.7 2.8 1.8 2.6.1-.3 3.5-12.5 3.5-12.5l-1.9-10.4.3-3.1 2.5-.1zm-26.2-39.4.6-10.8-4 5.1-.7 8.4 5.4 7.5-1.3-10.2zm49.1 11 6.7-6.9-.7-10.8-7.3-4.3.6 11-1.3 10.2-8.9 9.1-8.1 9.8-2.5 5 6.5-8.5 15-14.6zm-18.1 22.4 22.9-5 11.2-13.4 3.2-12.3-3.8-1.7-2.4 13-8.6 13.1-22.5 6.3zm56.5 9.7.8 21.6.5-20.4 4.5-13.1-5.8 11.9z" fill="#101b1d" strokeWidth="none" opacity="1" stroke="none"></path><path id="SvgjsPath10147" d="m137.4 165.7 1.2-10.5-6-6.2 1.4 10.3-10.3 16.1-14 8.7 18.6-4.5 9.1-13.9zm13.6 6.2-6.2-10.1c.2.6-2.1 9.5-2.1 9.5l-10.3 12.4-15.5 7.2 16.7-3.1 15.7-12.6 1.7-3.3zm24.8 14-3.7-1.9-2.3 5.6 3.9 9.3 3.9 19.2 4.1.2-5.9-32.4zm-7.7-6.5-14.4-4.8-2.5 5-8.3 5.6 19.4.6 4.5 1.2 3.7-5.6-2.4-2zM85 175.6l-10.1-10.3-3.7-7.4-1.4.6 3.1 11.6 11.6 9.1 14.4 5.6 3.1 3.9-3.3-5.6-13.7-7.5zm43.1-12.5-16.7 16.1-6.6 8.5 13.4-11.6 9.9-13z" fill="#2d393b" strokeWidth="none" opacity="1" stroke="none"></path></g><g id="svga-group-head" transform="matrix(1,0,0,1,0,0)"><g id="svga-group-ears-left-move" transform="matrix(1,0,0,1,0,0)"><g id="svga-group-ears-left"><path id="SvgjsPath7818" d="M63.1 91.8s-6-.7-10.6-3.7c0 0-3.5 9.4-4 14.4 0 0 6.7 13 10 18.5 0 0 5.2-.7 6.3-1.4l1.4-8.4-3.1-19.4z" fill="#f0c7b1" strokeWidth="none" opacity="1" stroke="none"></path><path id="SvgjsPath7819" d="M53.3 90c-.2-.4-.8-1.9-.8-1.9 5.2.4 10.7 1.4 10.7 1.4l3 21.6-1.4 8.4c-1.1.7-6.3 1.4-6.3 1.4-.6-1-1.3-2.3-2.1-3.6l2.6 1 3-1.6s.7-11.2.5-11.5c-.1-.3-9-14.8-9.2-15.2z" fill="#e1ac8f" strokeWidth="none" opacity="1" stroke="none"></path><path id="SvgjsPath7820" d="m50.3 100.9 2.8-5.5 5.2 6.8 2.2 9.5-1.4 1.9-4.3-7.6 1-4.7-2.6-4z" fill="#d19271" strokeWidth="none" opacity="1" stroke="none"></path></g></g><g id="svga-group-ears-right-move" transform="matrix(1,0,0,1,0,0)"><g id="svga-group-ears-right"><path id="SvgjsPath7821" d="M136.9 91.8s6-.7 10.6-3.7c0 0 3.5 9.4 4 14.4 0 0-6.7 13-10 18.5 0 0-5.2-.7-6.3-1.4l-1.4-8.4 3.1-19.4z" fill="#f0c7b1" strokeWidth="none" opacity="1" stroke="none"></path><path id="SvgjsPath7822" d="M146.7 90c.2-.4.8-1.9.8-1.9-5.2.4-10.7 1.4-10.7 1.4l-3 21.6 1.4 8.4c1.1.7 6.3 1.4 6.3 1.4.6-1 1.3-2.3 2.1-3.6l-2.6 1-3-1.6s-.7-11.2-.5-11.5c.1-.3 9-14.8 9.2-15.2z" fill="#e1ac8f" strokeWidth="none" opacity="1" stroke="none"></path><path id="SvgjsPath7823" d="m149.7 100.9-2.8-5.5-5.2 6.8-2.2 9.5 1.4 1.9 4.3-7.6-1-4.7 2.6-4z" fill="#d19271" strokeWidth="none" opacity="1" stroke="none"></path></g></g><g id="svga-group-faceshape-wrap"><g id="svga-group-faceshape-single"><path id="SvgjsPath8046" d="M138.1 60c-6.9-11.6-19.7-19.5-19.7-19.5-7.2-1.5-18.4-2.3-18.4-2.3s-11.1.8-18.4 2.3c0 0-12.8 7.9-19.7 19.5 0 0-5.1 14.5-5.3 24.8l4.9 33.9 14.2 24.8 16.9 11.7h14.9l16.9-11.7 14.2-24.8 4.9-33.9c-.3-10.3-5.4-24.8-5.4-24.8z" fill="#f0c7b1" strokeWidth="none" opacity="1" stroke="none"></path><path id="SvgjsPath8047" d="m92.7 152.7-14.6-12.3s-11.4-20.9-11.8-21.7c-.4-.9-5-34.3-5-34.3.2-4.8 4.5-21.5 5-22.2 2.1-3.2 16.5-18 16.5-18l17.1-4.1 18.5.4c-7.2-1.5-18.4-2.3-18.4-2.3s-11.1.8-18.4 2.3c0 0-12.8 7.9-19.7 19.5 0 0-5.1 14.5-5.3 24.8l4.9 33.9 14.2 24.8 16.9 11.7h14.9l16.9-11.7-18 10.4-13.7-1.2z" fill="#d19271" strokeWidth="none" opacity="1" stroke="none"></path></g></g><g id="svga-group-mouth-single-move" transform="matrix(1,0,0,1,0,0)"><g id="svga-group-mouth-single"><path id="SvgjsPath13363" d="m82.7 123.9 1.5 4.2 10.2 9.1 13.4.1 8.6-8.4 1.1-5.2-17.4 4.4z" fill="#000000" strokeWidth="none" opacity="1" transform="translate(0 2)"></path><path id="SvgjsPath13364" d="m100.1 128.1-17.4-4.2 1.9 4.1 15.4 3.5 16.1-2.8 1.4-5z" fill="#ffffff" strokeWidth="none" opacity="1" transform="translate(0 2)"></path><path id="SvgjsPath13365" d="m81.8 123.6 18.3 4.8 18.8-5-19 3.3z" fill="#da7c87" strokeWidth="none" opacity="1" transform="translate(0 2)"></path><path id="SvgjsPath13366" d="m117.4 121.1 1 2.4.2 2.7.7-2.4-.9-2.3-1-.4zm-34.9.5-.9 2.3.7 2.4.2-2.7 1-2.4-1 .4z" fill="#e1ac8f" strokeWidth="none" opacity="1" transform="translate(0 2)"></path><path id="SvgjsPath13367" d="M96.6 140.1s1.4.8 1.6.8c.2 0 6.4-.1 6.4-.1l.7-.9-8.7.2z" fill="#d19271" strokeWidth="none" opacity="1" transform="translate(0 2)"></path></g></g><g id="svga-group-eyes-left-move" transform="matrix(1,0,0,1,0,0)"><g id="svga-group-eyes-left"><g id="svga-group-eyesback-left"><path id="SvgjsPath12008" d="M91.2 95.7 86 91.1l-9 .1-7 3.8s5.8 4.3 7.2 4.9l8.8-.4 5.2-3.8z" fill="#ffffff" strokeWidth="none" opacity="1"></path></g><g id="svga-group-eyesiriswrapper-left" transform="matrix(1,0,0,1,0,0)"><g id="svga-group-eyesiriscontrol-left" transform="matrix(1,0,0,1,0,0)"><g id="svga-group-eyesiris-left"><path id="SvgjsPath12874" d="m76.8 98-.9-5.5 4.3-3.5 5.2 1.9.9 5.5-4.2 3.5z" fill="#4e60a3" strokeWidth="none" opacity="1"></path><path id="SvgjsPath12875" d="m80.2 89.3 4.9 1.8.9 5.2-4 3.4-4.9-1.8-.9-5.2 4-3.4m-.1-.6-4.5 3.8 1 5.8 5.5 2 4.5-3.8-1-5.8-5.5-2z" fill="#253984" strokeWidth="none" opacity="1"></path><path id="SvgjsPath12876" d="m78.1 95.4.7-3.1 3-.9 2.3 2.1-.6 3.1-3 .9z" fill="#000000" strokeWidth="none" opacity="1"></path><path id="SvgjsPath12877" d="M79.1 91.9h1.8v1.8h-1.8v-1.8z" fill="#ffffff" strokeWidth="none" opacity="1"></path><path id="SvgjsPath12878" d="M81.5 96.3h1v1h-1v-1z" fill="#ffffff" strokeWidth="none" opacity="1"></path></g></g></g><g id="svga-group-eyesfront-left"><path id="SvgjsPath12016" d="M67.1 89.3v11.9l7.9 8.4h11.2l7.9-8.4V89.3l-7.9-8.4H75l-7.9 8.4zm3 5.7 7-3.8 9-.1 5.1 4.6-5.2 3.9-8.8.4c-1.3-.8-7.1-5-7.1-5z" fill="#f0c7b1" strokeWidth="none" opacity="1" stroke="none"></path><path id="SvgjsPath12017" d="m91.7 96.1-1.2-.6-4.7-4.1H77l-7.2 4-1 .2 7.9-5 9.6-.1z" fill="#000000" strokeWidth="none" opacity="1" stroke="none"></path><path id="SvgjsPath12018" d="m90.8 94-4-4.1-9.8-.1-8.1 3.6 8.1-3.1h9.7z" fill="#e1ac8f" strokeWidth="none" opacity="1" stroke="none"></path></g></g></g><g id="svga-group-eyes-right-move" transform="matrix(1,0,0,1,0,0)"><g id="svga-group-eyes-right"><g id="svga-group-eyesback-right"><path id="SvgjsPath12009" d="m108.8 95.7 5.1-4.6 9 .1 7 3.8s-5.8 4.3-7.2 4.9l-8.8-.4-5.1-3.8z" fill="#ffffff" strokeWidth="none" opacity="1"></path></g><g id="svga-group-eyesiriswrapper-right" transform="matrix(1,0,0,1,0,0)"><g id="svga-group-eyesiriscontrol-right" transform="matrix(1,0,0,1,0,0)"><g id="svga-group-eyesiris-right"><path id="SvgjsPath12879" d="m114.6 98-.9-5.5 4.2-3.5 5.3 1.9.9 5.5-4.3 3.5z" fill="#4e60a3" strokeWidth="none" opacity="1"></path><path id="SvgjsPath12880" d="m118 89.3 4.9 1.8.9 5.2-4 3.4-4.9-1.8-.9-5.2 4-3.4m-.1-.6-4.5 3.8 1 5.8 5.5 2 4.5-3.8-1-5.8-5.5-2z" fill="#253984" strokeWidth="none" opacity="1"></path><path id="SvgjsPath12881" d="m115.9 95.4.6-3.1 3-.9 2.4 2.1-.7 3.1-3 .9z" fill="#000000" strokeWidth="none" opacity="1"></path><path id="SvgjsPath12882" d="M116.9 91.9h1.8v1.8h-1.8v-1.8z" fill="#ffffff" strokeWidth="none" opacity="1"></path><path id="SvgjsPath12883" d="M119.2 96.3h1v1h-1v-1z" fill="#ffffff" strokeWidth="none" opacity="1"></path></g></g></g><g id="svga-group-eyesfront-right"><path id="SvgjsPath12019" d="M125 80.8h-11.2l-7.9 8.4v11.9l7.9 8.4H125l7.9-8.4V89.3l-7.9-8.5zm-2.3 19.1-8.8-.4-5.1-3.8 5.1-4.6 9 .1 7 3.8s-5.8 4.2-7.2 4.9z" fill="#f0c7b1" strokeWidth="none" opacity="1" stroke="none"></path><path id="SvgjsPath12022" d="m108.3 96.1 1.2-.6 4.7-4.1h8.8l7.2 4 1 .2-7.9-5-9.6-.1z" fill="#000000" strokeWidth="none" opacity="1" stroke="none"></path><path id="SvgjsPath12023" d="m109.2 94 4-4.1 9.8-.1 8.1 3.6-8.1-3.1h-9.7z" fill="#e1ac8f" strokeWidth="none" opacity="1" stroke="none"></path></g></g></g><g id="svga-group-facehighlight-single"></g><g id="svga-group-eyebrows-left-move" transform="matrix(1,0,0,1,0,0)"><g id="svga-group-eyebrows-left-rotate" transform="matrix(1,1.7453292519943295e-9,-1.7453292519943295e-9,1,1.4451326535436237e-7,-1.3849188462700113e-7)"><g id="svga-group-eyebrows-left"><path id="SvgjsPath7786" d="M74.2 77.6 71 79l-5 9 8.5-4.6 17.3 3.7.9-6z" fill="#2a232b" strokeWidth="none" opacity="1" stroke="none"></path><path id="SvgjsPath7787" d="m87.9 84-1.2-4-1.7-.4 2.9 4.4zM73 78.2l5.6 4.6-4.4-5.2-1.2.6zm6.9.5 3.8 5-1.9-4.6-1.9-.4zm-11.7 5.4 2.7-1.5-2.1.5-.6 1zm14.7-4.8 1.7 1.9-.5-1.7-1.2-.2zm-12.4.7 3.8.8L71 79l-.5 1zm16.6.1 3.5 5.2-1.4-4.7-2.1-.5z" fill="#3a353a" strokeWidth="none" opacity="1" stroke="none"></path></g></g></g><g id="svga-group-eyebrows-right-move" transform="matrix(1,0,0,1,0,0)"><g id="svga-group-eyebrows-right-rotate" transform="matrix(1,1.7453292519943295e-9,-1.7453292519943295e-9,1,1.4451326535436237e-7,-2.1057397248114285e-7)"><g id="svga-group-eyebrows-right"><path id="SvgjsPath7788" d="m107.3 81.1.9 6 17.3-3.7L134 88l-5-9-3.2-1.4z" fill="#2a232b" strokeWidth="none" opacity="1" stroke="none"></path><path id="SvgjsPath7789" d="m115 79.6-1.7.3-1.2 4 2.9-4.3zm10.8-2-4.4 5.2 5.6-4.6-1.2-.6zm-7.6 1.5-1.9 4.6 3.8-5-1.9.4zm12.9 4-2.1-.5 2.7 1.5-.6-1zm-15.2-3.6-.5 1.7 1.7-1.9-1.2.2zM129 79l-3.2 1.8 3.8-.8-.6-1zm-18.2 1.5-1.4 4.7 3.5-5.2-2.1.5z" fill="#3a353a" strokeWidth="none" opacity="1" stroke="none"></path></g></g></g><g id="svga-group-beardwrap"><g id="svga-group-beard-single-move" transform="matrix(1,0,0,1,0,0)"><g id="svga-group-beard-single"></g></g></g><g id="svga-group-mustache-single-move" transform="matrix(1,0,0,1,0,0)"><g id="svga-group-mustache-single"></g></g><g id="svga-group-nose-single-move" transform="matrix(1,0,0,1,0,0)"><g id="svga-group-nose-single"><path id="SvgjsPath7974" d="m96.12 99.91-.45 6.4-5.78 8.87 2.98 2.25 1.63-2.02 4.32 3.82h2.41l4.27-3.82 1.57 1.96 3.15-2.19-5.79-8.92-.56-6.46-3.82-1.63z" fill="#f0c7b1" strokeWidth="none" opacity="1" transform="translate(0 1)" stroke="none"></path><path id="SvgjsPath7975" d="m104.86 106.44-1.95-15.67 1.1 14.55-.86-.22 6.58 10.06-2.34 1.73-1.28-1.51.28-1.34-5.15 4.47h-2.4l-5.15-4.47.29 1.34-1.29 1.51-2.34-1.73 6.59-10.06-.86.22 1.33-22.81-2.19 23.93-5.82 8.83 3.81 2.79 1.44-2.01 4.19 3.91h2.4l4.2-3.91 1.43 2.01 3.81-2.79z" fill="#d19271" strokeWidth="none" opacity="1" transform="translate(0 1)" stroke="none"></path><path id="SvgjsPath7976" d="m96.15 113.17 2.37 1.46 3.1.06 2.55-1.16-.3-1.76-3.59-.6-3.94.66z" fill="#f8d5c3" strokeWidth="none" opacity="1" transform="translate(0 1)" stroke="none"></path></g></g><g id="svga-group-hair-front"><path id="SvgjsPath8926" d="m125.9 59.8-10.7 11.3-13.6 6 11.3-9.2-14.2 9s-9 2.9-8.4 2.7c.6-.2 17.5-13.2 17.5-13.2l-17.7 9.9-9 2.5 8.2-6.8 13.1-13.2-11.7 9-8.2 7.8 3.1-6.4 6-5.8-8.8 5.8-8.8 9.3-5.1 11.3 1.6-10.1L77.3 69l-9.2 11.5L66.9 92l-.4 11.3-4.5-14s.4 12.3.8 13.2c.4 1 3.1 13.8 3.1 13.8l-5.5-11.9 1.4 10.1-6.2-14.6-1.2-10.7-2.2 3.4s-1.8-19.9-1.6-20.5c.2-.6 5.6-16 5.6-16l-2.9.6 6.7-8.4L72.4 38l-5.8 1 12.1-5.7 20.4-3.5 10.7 1.6-10.3-4.9 15.2 4.3 9.7 6.5 4.2 6.1 4.8 1.1 10.9 6 6.9 12.5-4.5-3.2 4 9.7.5 18.8-2.4-5.4.4 5.2.9 6.8-3.9-5.1-2.5 5.5-3.1 10.7.4-15-1-13.1-7.4-8.8 1.9 4.9-7.8-9.2-.8-5z" fill="#2a232b" strokeWidth="none" opacity="1" stroke="none"></path><path id="SvgjsPath8927" d="m126.2 52.6-10.6 11.8-9.2 4.9 8.3-8.6-15.3 8-6.3 2 7.7-5.1 12.6-13.2s-15.9 6.1-16.9 6.5c-1 .4-14.7 9.2-14.7 9.2l11.4-10.6-18.7 10.3-8.3 10.8-1.6 7.5-.8-9.4 8.8-12L88.8 54l-15.9 4.3-9.4 8.2 9-13.2 18.1-6.7-11.8-1.2-5.7 1.2 6.7-3.1 19.6-.6-6.5-5.1-9.6.2 12.6-2.4 9.8 2.2-3.3-4.1 11 3.7 7.7 5.9-3.7-6.1-3.7-3.3 7.7 3.1 6.5 9-1.7 6.6zm3.7-5.9-1.2 7.5 2.9 8 11 13.4 1 11.6 1.8-12 3.9 4.5-2.4-8.8-7.3-11 8.2 6.1-7.7-11.2 4.5 1.6-3.7-5.5-11-4.2z" fill="#322c33" strokeWidth="none" opacity="1" stroke="none"></path><path id="SvgjsPath8928" d="m124.2 50.4-8.7 7.9-9.4 4.8 9.4-7.4 8.7-5.3zm-4.2-3.7-12.7-1.5-20.7 5.5s20.3-3.7 21.2-3.7 12.2-.3 12.2-.3zM58.7 95.8l-.2-19 4.1-9.2-6.1 8.7 2.2 19.5z" fill="#3a353a" strokeWidth="none" opacity="1" stroke="none"></path></g><g id="svga-group-glasses-single-move" transform="matrix(1,0,0,1,0,0)"><g id="svga-group-glasses-single"></g></g></g></g></g><rect id="svga-credit-rect" width="200" height="15" x="0" y="185" fill="#ecf0f1" opacity="0.5" style="display: none;"></rect><text id="svga-credit-text" font-family="Avenir Next, Roboto, Helvetica, Arial, sans-serif" font-size="10px" text-anchor="start" font-weight="400" size="10px" anchor="start" weight="400" fill="#333333" x="32.98969268798828" y="182.71133995056152" style="display: none;"><tspan id="SvgjsTspan7780" dy="13" x="32.98969268798828">Created on AvatarMaker.com</tspan></text></g><defs id="SvgjsDefs7727"></defs></svg>